<?xml version="1.0" encoding="UTF-8"?>
<!DOCTYPE svg PUBLIC "-//W3C//DTD SVG 1.1//EN" "http://www.w3.org/Graphics/SVG/1.1/DTD/svg11.dtd">
<svg xmlns="http://www.w3.org/2000/svg" version="1.1" width="1221px" height="204px" style="shape-rendering:geometricPrecision; text-rendering:geometricPrecision; image-rendering:optimizeQuality; fill-rule:evenodd; clip-rule:evenodd" xmlns:xlink="http://www.w3.org/1999/xlink">
<g><path style="opacity:0.952" fill="#000000" d="M 294.5,-0.5 C 302.167,-0.5 309.833,-0.5 317.5,-0.5C 340.099,5.15229 350.432,19.819 348.5,43.5C 337.443,44.4453 326.109,45.4453 314.5,46.5C 314.666,39.4921 314.5,32.4921 314,25.5C 311.851,16.2569 306.851,14.2569 299,19.5C 295.295,27.5282 295.961,35.1949 301,42.5C 308.302,50.1411 316.469,56.6411 325.5,62C 350.177,81.2071 355.343,104.707 341,132.5C 334.438,138.864 326.604,142.698 317.5,144C 303.159,146.173 289.492,144.173 276.5,138C 264.808,127.429 260.141,114.262 262.5,98.5C 273.482,97.3198 284.482,96.3198 295.5,95.5C 295.144,103.238 295.644,110.905 297,118.5C 298.785,126.139 303.285,128.639 310.5,126C 314.126,122.46 315.793,118.126 315.5,113C 314.862,105.017 311.529,98.3503 305.5,93C 292.81,84.9799 281.31,75.4799 271,64.5C 263.414,51.7851 261.414,38.1185 265,23.5C 270.589,10.1412 280.422,2.14116 294.5,-0.5 Z"/></g>
<g><path style="opacity:0.96" fill="#000000" d="M 390.5,-0.5 C 397.833,-0.5 405.167,-0.5 412.5,-0.5C 426.495,1.64415 436.328,9.31082 442,22.5C 444.521,29.8315 446.354,37.3315 447.5,45C 446.226,62.2059 446.226,79.3726 447.5,96.5C 445.598,132.905 426.598,148.738 390.5,144C 375.145,141.64 364.978,133.14 360,118.5C 357.805,111.33 356.472,103.996 356,96.5C 355.333,79.8333 355.333,63.1667 356,46.5C 355.925,30.3037 361.759,16.8037 373.5,6C 378.888,2.7516 384.554,0.584928 390.5,-0.5 Z M 398.5,16.5 C 404.834,15.6523 409.001,18.3189 411,24.5C 411.667,56.1667 411.667,87.8333 411,119.5C 407.095,128.485 401.428,129.818 394,123.5C 393.027,121.608 392.36,119.608 392,117.5C 391.333,86.8333 391.333,56.1667 392,25.5C 392.873,21.4754 395.039,18.4754 398.5,16.5 Z"/></g>
<g><path style="opacity:0.969" fill="#000000" d="M -0.5,143.5 C -0.5,96.1667 -0.5,48.8333 -0.5,1.5C 13.4123,1.17674 27.2456,1.51007 41,2.5C 44.2814,28.4623 48.4481,54.1289 53.5,79.5C 53.56,80.0431 53.8933,80.3764 54.5,80.5C 59.9187,54.3222 64.5854,27.9889 68.5,1.5C 83.1495,1.45206 97.6495,1.45206 112,1.5C 112.5,48.8322 112.667,96.1655 112.5,143.5C 101.167,143.5 89.8333,143.5 78.5,143.5C 78.5,119.167 78.5,94.8333 78.5,70.5C 77.5,70.5 76.5,70.5 75.5,70.5C 71.3362,94.1485 67.1695,117.815 63,141.5C 59.26,142.794 55.26,143.461 51,143.5C 46.9177,143.484 42.9177,143.151 39,142.5C 34.356,118.114 29.5227,93.7803 24.5,69.5C 23.914,69.7093 23.414,70.0426 23,70.5C 22.5,94.8311 22.3334,119.164 22.5,143.5C 14.8333,143.5 7.16667,143.5 -0.5,143.5 Z"/></g>
<g><path style="opacity:0.958" fill="#000000" d="M 183.5,0.5 C 184.79,1.05773 185.623,2.05773 186,3.5C 194.76,49.0482 203.927,95.3815 213.5,142.5C 201.185,143.499 188.851,143.832 176.5,143.5C 175.313,135.525 174.313,127.525 173.5,119.5C 164.5,119.5 155.5,119.5 146.5,119.5C 145.828,127.546 144.828,135.546 143.5,143.5C 135.167,143.5 126.833,143.5 118.5,143.5C 127.07,96.0775 136.07,48.7442 145.5,1.5C 158.344,1.82868 171.011,1.49535 183.5,0.5 Z M 159.5,43.5 C 160.5,43.5 161.5,43.5 162.5,43.5C 164.938,61.7337 167.605,79.9004 170.5,98C 163.833,98.6667 157.167,98.6667 150.5,98C 154.043,79.9594 157.043,61.7927 159.5,43.5 Z"/></g>
<g><path style="opacity:0.957" fill="#000000" d="M 220.5,0.5 C 231.462,1.47518 242.295,1.80852 253,1.5C 253.5,48.8322 253.667,96.1655 253.5,143.5C 242.167,143.5 230.833,143.5 219.5,143.5C 219.172,95.7614 219.505,48.0947 220.5,0.5 Z"/></g>
<g><path style="opacity:0.961" fill="#000000" d="M 457.5,0.5 C 466.066,1.44394 474.566,1.77727 483,1.5C 492.591,23.02 501.925,44.6867 511,66.5C 511.689,67.3567 512.522,68.0233 513.5,68.5C 514.5,46.1766 514.833,23.8433 514.5,1.5C 522.5,1.5 530.5,1.5 538.5,1.5C 538.5,48.8333 538.5,96.1667 538.5,143.5C 529.582,143.817 520.749,143.484 512,142.5C 503.675,123.534 495.341,104.534 487,85.5C 485.894,82.2738 484.061,79.6071 481.5,77.5C 480.5,99.4899 480.167,121.49 480.5,143.5C 472.833,143.5 465.167,143.5 457.5,143.5C 457.5,95.8333 457.5,48.1667 457.5,0.5 Z"/></g>
<g><path style="opacity:0.962" fill="#000000" d="M 635.5,0.5 C 645.02,0.64537 654.353,2.81204 663.5,7C 676.05,15.6343 680.55,27.4676 677,42.5C 674.437,52.807 668.27,59.9736 658.5,64C 674.901,70.7596 682.901,83.0929 682.5,101C 682.742,127.755 669.575,141.921 643,143.5C 626.752,142.532 610.418,142.199 594,142.5C 593.5,95.5012 593.333,48.5012 593.5,1.5C 607.677,1.82915 621.677,1.49582 635.5,0.5 Z M 627.5,20.5 C 639.581,19.5843 644.914,25.251 643.5,37.5C 644.631,49.367 639.298,55.0337 627.5,54.5C 627.5,43.1667 627.5,31.8333 627.5,20.5 Z M 627.5,73.5 C 637.899,72.3952 643.733,77.0619 645,87.5C 645.667,94.8333 645.667,102.167 645,109.5C 643.714,119.96 637.881,124.626 627.5,123.5C 627.5,106.833 627.5,90.1667 627.5,73.5 Z"/></g>
<g><path style="opacity:0.959" fill="#000000" d="M 710.5,0.5 C 723.746,0.177268 736.913,0.510601 750,1.5C 759.556,48.1169 768.722,95.1169 777.5,142.5C 765.586,142.179 753.753,142.512 742,143.5C 740.357,135.979 739.024,128.312 738,120.5C 729.333,119.167 720.667,119.167 712,120.5C 710.405,128.014 708.905,135.514 707.5,143C 699.516,142.54 691.683,142.373 684,142.5C 692.245,95.104 701.079,47.7707 710.5,0.5 Z M 724.5,43.5 C 725.5,43.5 726.5,43.5 727.5,43.5C 729.906,61.8234 732.24,80.1567 734.5,98.5C 728.167,98.5 721.833,98.5 715.5,98.5C 718.26,79.7995 721.26,61.4662 724.5,43.5 Z"/></g>
<g><path style="opacity:0.965" fill="#000000" d="M 827.5,0.5 C 863.861,3.02427 875.694,21.3576 863,55.5C 860.403,60.5525 856.57,64.3858 851.5,67C 857.58,86.7145 863.414,106.548 869,126.5C 870.814,132.073 871.814,137.74 872,143.5C 860.247,142.512 848.414,142.179 836.5,142.5C 832.528,119.805 827.861,97.3053 822.5,75C 820.866,74.5065 819.199,74.3398 817.5,74.5C 817.667,97.1691 817.5,119.836 817,142.5C 805.983,142.563 794.817,142.563 783.5,142.5C 783.5,95.5 783.5,48.5 783.5,1.5C 798.343,1.82935 813.01,1.49602 827.5,0.5 Z M 817.5,20.5 C 822.297,20.1211 826.964,20.6211 831.5,22C 836.634,32.056 836.8,42.2226 832,52.5C 827.872,56.0282 823.039,57.3616 817.5,56.5C 817.5,44.5 817.5,32.5 817.5,20.5 Z"/></g>
<g><path style="opacity:0.966" fill="#000000" d="M 922.5,0.5 C 954.052,1.0059 967.219,16.6726 962,47.5C 959.356,55.8013 954.523,62.468 947.5,67.5C 954.494,92.1512 961.494,116.818 968.5,141.5C 968.192,142.308 967.692,142.975 967,143.5C 955.264,142.549 943.597,142.216 932,142.5C 927.668,120.172 923.334,97.8384 919,75.5C 917.204,74.233 915.371,74.233 913.5,75.5C 912.5,97.8234 912.167,120.157 912.5,142.5C 901.167,142.5 889.833,142.5 878.5,142.5C 878.5,95.5 878.5,48.5 878.5,1.5C 893.343,1.82935 908.01,1.49602 922.5,0.5 Z M 912.5,20.5 C 926.251,17.917 932.251,23.5836 930.5,37.5C 931.903,51.0977 925.903,57.431 912.5,56.5C 912.5,44.5 912.5,32.5 912.5,20.5 Z"/></g>
<g><path style="opacity:0.98" fill="#000000" d="M 975.5,0.5 C 998.47,1.83245 1021.47,1.83245 1044.5,0.5C 1045.09,0.709312 1045.59,1.04265 1046,1.5C 1046.5,8.15835 1046.67,14.825 1046.5,21.5C 1033.83,21.5 1021.17,21.5 1008.5,21.5C 1008.33,30.1731 1008.5,38.8397 1009,47.5C 1016.3,47.4052 1023.8,47.5719 1031.5,48C 1032.48,54.7445 1032.81,61.5778 1032.5,68.5C 1024.5,68.5 1016.5,68.5 1008.5,68.5C 1008.33,86.1698 1008.5,103.836 1009,121.5C 1021.42,122.489 1033.92,122.822 1046.5,122.5C 1046.5,129.167 1046.5,135.833 1046.5,142.5C 1022.93,142.173 999.425,142.506 976,143.5C 975.5,95.8345 975.333,48.1678 975.5,0.5 Z"/></g>
<g><path style="opacity:0.964" fill="#000000" d="M 1096.5,0.5 C 1129.8,1.23821 1142.97,17.5715 1136,49.5C 1132.99,56.8409 1128.16,62.6742 1121.5,67C 1129,91.1737 1136,115.507 1142.5,140C 1142.49,141.404 1141.99,142.57 1141,143.5C 1129.54,142.534 1118.2,142.2 1107,142.5C 1101.75,119.993 1097.25,97.3262 1093.5,74.5C 1091.53,74.2606 1089.7,74.5939 1088,75.5C 1087.5,97.8308 1087.33,120.164 1087.5,142.5C 1076.17,142.5 1064.83,142.5 1053.5,142.5C 1053.5,95.5 1053.5,48.5 1053.5,1.5C 1068.01,1.82925 1082.34,1.49592 1096.5,0.5 Z M 1087.5,20.5 C 1100.5,18.4939 1106.5,24.1606 1105.5,37.5C 1105.03,42.6762 1103.87,47.6762 1102,52.5C 1097.83,56.0271 1093,57.3605 1087.5,56.5C 1087.5,44.5 1087.5,32.5 1087.5,20.5 Z"/></g>
<g><path style="opacity:0.969" fill="#000000" d="M 1220.5,1.5 C 1220.5,8.16667 1220.5,14.8333 1220.5,21.5C 1208.17,21.5 1195.83,21.5 1183.5,21.5C 1183.33,30.5062 1183.5,39.5062 1184,48.5C 1190.26,47.5825 1196.43,47.2491 1202.5,47.5C 1203.66,54.8107 1203.83,62.144 1203,69.5C 1196.59,68.5223 1190.09,68.189 1183.5,68.5C 1183.5,86.5 1183.5,104.5 1183.5,122.5C 1195.83,122.5 1208.17,122.5 1220.5,122.5C 1220.5,129.5 1220.5,136.5 1220.5,143.5C 1196.82,142.512 1173.32,142.179 1150,142.5C 1149.5,95.5012 1149.33,48.5012 1149.5,1.5C 1173.37,1.47464 1197.04,1.47464 1220.5,1.5 Z"/></g>
<g><path style="opacity:0.004" fill="#000000" d="M 53.5,78.5 C 54.8333,79.1667 54.8333,79.1667 53.5,78.5 Z"/></g>
<g><path style="opacity:0.714" fill="#000000" d="M 379.5,203.5 C 375.5,203.5 371.5,203.5 367.5,203.5C 367.5,202.5 367.5,201.5 367.5,200.5C 368.833,200.5 370.167,200.5 371.5,200.5C 371.5,193.5 371.5,186.5 371.5,179.5C 369.5,179.5 367.5,179.5 365.5,179.5C 365.5,180.833 365.5,182.167 365.5,183.5C 364.5,183.5 363.5,183.5 362.5,183.5C 362.5,180.833 362.5,178.167 362.5,175.5C 369.5,175.5 376.5,175.5 383.5,175.5C 383.5,178.167 383.5,180.833 383.5,183.5C 382.5,183.5 381.5,183.5 380.5,183.5C 380.5,182.167 380.5,180.833 380.5,179.5C 378.833,179.5 377.167,179.5 375.5,179.5C 375.5,186.5 375.5,193.5 375.5,200.5C 376.833,200.5 378.167,200.5 379.5,200.5C 379.5,201.5 379.5,202.5 379.5,203.5 Z"/></g>
<g><path style="opacity:0.693" fill="#010101" d="M 408.5,203.5 C 405.5,203.5 402.5,203.5 399.5,203.5C 399.36,201.876 400.027,200.71 401.5,200C 399.584,195.644 396.417,194.477 392,196.5C 391.666,198.847 391.833,201.181 392.5,203.5C 390.5,203.5 388.5,203.5 386.5,203.5C 388.888,195.166 391.388,186.833 394,178.5C 396.437,174.413 398.437,174.746 400,179.5C 402.239,187.834 405.072,195.834 408.5,203.5 Z M 395.5,183.5 C 397.072,186.215 398.072,189.215 398.5,192.5C 396.833,192.5 395.167,192.5 393.5,192.5C 394.01,189.461 394.677,186.461 395.5,183.5 Z"/></g>
<g><path style="opacity:0.739" fill="#010101" d="M 424.5,203.5 C 419.833,203.5 415.167,203.5 410.5,203.5C 413.108,194.191 413.108,184.857 410.5,175.5C 414.182,175.335 417.848,175.501 421.5,176C 429.227,177.289 431.227,181.455 427.5,188.5C 430.356,191.624 431.189,195.291 430,199.5C 428.5,201.469 426.667,202.802 424.5,203.5 Z M 417.5,179.5 C 420.885,178.79 423.219,179.956 424.5,183C 423.177,185.999 420.843,187.499 417.5,187.5C 417.5,184.833 417.5,182.167 417.5,179.5 Z M 417.5,190.5 C 425.219,189.87 427.219,192.87 423.5,199.5C 421.591,200.348 419.591,200.682 417.5,200.5C 417.5,197.167 417.5,193.833 417.5,190.5 Z"/></g>
<g><path style="opacity:0.712" fill="#000000" d="M 454.5,203.5 C 447.833,203.5 441.167,203.5 434.5,203.5C 437.108,194.191 437.108,184.857 434.5,175.5C 437.5,175.5 440.5,175.5 443.5,175.5C 441.767,183.702 441.1,192.036 441.5,200.5C 444.833,200.5 448.167,200.5 451.5,200.5C 451.5,198.833 451.5,197.167 451.5,195.5C 452.5,195.5 453.5,195.5 454.5,195.5C 454.5,198.167 454.5,200.833 454.5,203.5 Z"/></g>
<g><path style="opacity:0.716" fill="#010101" d="M 477.5,203.5 C 471.167,203.5 464.833,203.5 458.5,203.5C 461.108,194.191 461.108,184.857 458.5,175.5C 464.509,175.334 470.509,175.501 476.5,176C 478.075,178.936 477.575,181.436 475,183.5C 473.812,182.437 473.312,181.103 473.5,179.5C 470.833,179.5 468.167,179.5 465.5,179.5C 465.5,182.167 465.5,184.833 465.5,187.5C 467.167,187.5 468.833,187.5 470.5,187.5C 470.5,186.167 470.5,184.833 470.5,183.5C 471.5,183.5 472.5,183.5 473.5,183.5C 473.5,186.833 473.5,190.167 473.5,193.5C 472.5,193.5 471.5,193.5 470.5,193.5C 470.5,192.5 470.5,191.5 470.5,190.5C 468.833,190.5 467.167,190.5 465.5,190.5C 465.5,193.833 465.5,197.167 465.5,200.5C 468.5,200.5 471.5,200.5 474.5,200.5C 474.5,199.167 474.5,197.833 474.5,196.5C 475.5,196.5 476.5,196.5 477.5,196.5C 477.5,198.833 477.5,201.167 477.5,203.5 Z"/></g>
<g><path style="opacity:0.684" fill="#010101" d="M 498.5,203.5 C 497.167,203.5 495.833,203.5 494.5,203.5C 493.355,199.584 492.522,195.584 492,191.5C 490.928,195.547 489.761,199.547 488.5,203.5C 487.167,203.5 485.833,203.5 484.5,203.5C 484.085,193.995 482.751,184.661 480.5,175.5C 482.833,175.5 485.167,175.5 487.5,175.5C 486.191,181.188 486.358,186.855 488,192.5C 489.145,189.568 489.978,186.568 490.5,183.5C 491.978,183.238 493.311,183.571 494.5,184.5C 495.645,187.748 496.479,191.081 497,194.5C 498.285,188.156 498.452,181.823 497.5,175.5C 499.977,175.051 501.977,175.717 503.5,177.5C 501.19,186.024 499.523,194.691 498.5,203.5 Z"/></g>
<g><path style="opacity:0.696" fill="#010101" d="M 527.5,203.5 C 524.5,203.5 521.5,203.5 518.5,203.5C 520.571,196.603 517.904,193.937 510.5,195.5C 510.579,196.93 510.246,198.264 509.5,199.5C 510.853,200.524 511.52,201.857 511.5,203.5C 509.167,203.5 506.833,203.5 504.5,203.5C 507.936,195.109 510.77,186.443 513,177.5C 514.049,175.893 515.549,175.227 517.5,175.5C 520.243,185.197 523.576,194.53 527.5,203.5 Z M 514.5,183.5 C 515.484,186.051 516.484,188.718 517.5,191.5C 515.955,192.452 514.288,192.785 512.5,192.5C 512.756,189.402 513.422,186.402 514.5,183.5 Z"/></g>
<g><path style="opacity:0.73" fill="#010101" d="M 550.5,203.5 C 548.833,203.5 547.167,203.5 545.5,203.5C 543.847,200.193 542.18,196.86 540.5,193.5C 539.15,192.05 537.484,191.383 535.5,191.5C 535.32,195.682 535.987,199.682 537.5,203.5C 534.5,203.5 531.5,203.5 528.5,203.5C 531.13,194.114 531.13,184.78 528.5,175.5C 533.913,175.229 539.246,175.729 544.5,177C 547.394,179.909 548.227,183.409 547,187.5C 546.097,188.701 544.931,189.535 543.5,190C 546.518,194.203 548.851,198.703 550.5,203.5 Z M 535.5,179.5 C 542.158,178.344 544.158,180.844 541.5,187C 539.655,188.128 537.655,188.628 535.5,188.5C 535.5,185.5 535.5,182.5 535.5,179.5 Z"/></g>
<g><path style="opacity:0.722" fill="#010101" d="M 572.5,203.5 C 566.167,203.5 559.833,203.5 553.5,203.5C 552.147,202.133 552.481,201.133 554.5,200.5C 555.833,193.5 555.833,186.5 554.5,179.5C 553.713,178.758 553.047,177.925 552.5,177C 558.661,175.38 564.994,175.047 571.5,176C 572.591,178.064 572.758,180.231 572,182.5C 569.342,183.694 568.176,182.694 568.5,179.5C 565.833,179.5 563.167,179.5 560.5,179.5C 560.5,182.167 560.5,184.833 560.5,187.5C 562.167,187.5 563.833,187.5 565.5,187.5C 565.5,186.167 565.5,184.833 565.5,183.5C 566.5,183.5 567.5,183.5 568.5,183.5C 568.5,186.833 568.5,190.167 568.5,193.5C 567.5,193.5 566.5,193.5 565.5,193.5C 565.5,192.5 565.5,191.5 565.5,190.5C 563.833,190.5 562.167,190.5 560.5,190.5C 560.5,193.833 560.5,197.167 560.5,200.5C 563.5,200.5 566.5,200.5 569.5,200.5C 569.5,199.167 569.5,197.833 569.5,196.5C 570.5,196.5 571.5,196.5 572.5,196.5C 572.5,198.833 572.5,201.167 572.5,203.5 Z"/></g>
<g><path style="opacity:0.662" fill="#010101" d="M 621.5,203.5 C 619.833,203.5 618.167,203.5 616.5,203.5C 615.74,201.015 614.74,201.015 613.5,203.5C 610.5,203.5 607.5,203.5 604.5,203.5C 599.186,197.782 599.186,191.949 604.5,186C 602.187,177.977 605.187,174.644 613.5,176C 615.25,177.754 615.917,179.921 615.5,182.5C 614.5,182.5 613.5,182.5 612.5,182.5C 612.853,180.365 612.02,179.032 610,178.5C 608.268,178.734 607.434,179.734 607.5,181.5C 609.821,186.136 612.655,190.469 616,194.5C 616.87,193.892 617.37,193.059 617.5,192C 616.852,190.56 616.519,189.06 616.5,187.5C 618.604,187.201 620.604,187.534 622.5,188.5C 621.167,191.5 619.833,194.5 618.5,197.5C 620.415,199.071 621.415,201.071 621.5,203.5 Z M 605.5,189.5 C 608.45,191.621 610.95,194.287 613,197.5C 610.838,201.489 608.171,201.489 605,197.5C 604.398,194.779 604.565,192.113 605.5,189.5 Z"/></g>
<g><path style="opacity:0.664" fill="#010101" d="M 659.5,203.5 C 655.833,203.5 652.167,203.5 648.5,203.5C 651.108,194.191 651.108,184.857 648.5,175.5C 654.833,175.5 661.167,175.5 667.5,175.5C 667.663,177.857 667.497,180.19 667,182.5C 666.333,183.833 665.667,183.833 665,182.5C 664.517,181.552 664.351,180.552 664.5,179.5C 661.5,179.5 658.5,179.5 655.5,179.5C 655.5,182.167 655.5,184.833 655.5,187.5C 657.167,187.5 658.833,187.5 660.5,187.5C 660.5,186.167 660.5,184.833 660.5,183.5C 661.833,183.5 663.167,183.5 664.5,183.5C 664.5,186.833 664.5,190.167 664.5,193.5C 663.167,193.5 661.833,193.5 660.5,193.5C 660.5,192.5 660.5,191.5 660.5,190.5C 658.833,190.5 657.167,190.5 655.5,190.5C 655.5,193.833 655.5,197.167 655.5,200.5C 656.833,200.5 658.167,200.5 659.5,200.5C 659.5,201.5 659.5,202.5 659.5,203.5 Z"/></g>
<g><path style="opacity:0.712" fill="#010102" d="M 686.5,203.5 C 683.5,203.5 680.5,203.5 677.5,203.5C 675.856,202.684 674.69,201.35 674,199.5C 673.5,192.842 673.334,186.175 673.5,179.5C 672.5,179.5 671.5,179.5 670.5,179.5C 670.33,178.178 670.663,177.011 671.5,176C 674.146,175.503 676.813,175.336 679.5,175.5C 677.092,183.105 676.926,190.771 679,198.5C 682.03,201.36 684.697,201.027 687,197.5C 687.854,190.036 687.354,182.703 685.5,175.5C 687.857,175.337 690.19,175.503 692.5,176C 693.337,177.011 693.67,178.178 693.5,179.5C 692.5,179.5 691.5,179.5 690.5,179.5C 690.666,185.842 690.5,192.175 690,198.5C 689.743,200.907 688.576,202.573 686.5,203.5 Z"/></g>
<g><path style="opacity:0.694" fill="#010101" d="M 717.5,203.5 C 715.5,203.5 713.5,203.5 711.5,203.5C 709.754,200.337 708.254,197.004 707,193.5C 705.556,191.845 703.722,191.178 701.5,191.5C 701.32,195.682 701.987,199.682 703.5,203.5C 700.5,203.5 697.5,203.5 694.5,203.5C 696.46,195.654 696.96,187.654 696,179.5C 694.383,178.464 694.216,177.297 695.5,176C 701.651,174.921 707.484,175.754 713,178.5C 715.302,183.472 714.135,187.305 709.5,190C 712.457,194.431 715.124,198.931 717.5,203.5 Z M 701.5,179.5 C 708.158,178.344 710.158,180.844 707.5,187C 705.655,188.128 703.655,188.628 701.5,188.5C 701.5,185.5 701.5,182.5 701.5,179.5 Z"/></g>
<g><path style="opacity:0.713" fill="#010101" d="M 738.5,203.5 C 737.167,203.5 735.833,203.5 734.5,203.5C 731.257,197.074 727.757,190.74 724,184.5C 723.501,189.823 723.334,195.156 723.5,200.5C 726.494,200.146 727.494,201.146 726.5,203.5C 723.833,203.5 721.167,203.5 718.5,203.5C 721.108,194.191 721.108,184.857 718.5,175.5C 720.792,175.244 722.959,175.577 725,176.5C 728.081,182.331 731.415,187.998 735,193.5C 735.765,187.365 735.265,181.365 733.5,175.5C 735.833,175.5 738.167,175.5 740.5,175.5C 738.733,184.706 738.067,194.039 738.5,203.5 Z"/></g>
<g><path style="opacity:0.67" fill="#010102" d="M 760.5,203.5 C 755.5,203.5 750.5,203.5 745.5,203.5C 745.5,202.5 745.5,201.5 745.5,200.5C 747.167,200.5 748.833,200.5 750.5,200.5C 750.5,193.5 750.5,186.5 750.5,179.5C 748.833,179.5 747.167,179.5 745.5,179.5C 745.5,178.167 745.5,176.833 745.5,175.5C 750.5,175.5 755.5,175.5 760.5,175.5C 760.5,176.833 760.5,178.167 760.5,179.5C 758.833,179.5 757.167,179.5 755.5,179.5C 755.5,186.5 755.5,193.5 755.5,200.5C 757.167,200.5 758.833,200.5 760.5,200.5C 760.5,201.5 760.5,202.5 760.5,203.5 Z"/></g>
<g><path style="opacity:0.685" fill="#010101" d="M 782.5,203.5 C 778.833,203.5 775.167,203.5 771.5,203.5C 771.5,202.5 771.5,201.5 771.5,200.5C 772.5,200.5 773.5,200.5 774.5,200.5C 774.5,193.5 774.5,186.5 774.5,179.5C 772.833,179.5 771.167,179.5 769.5,179.5C 769.5,180.833 769.5,182.167 769.5,183.5C 768.5,183.5 767.5,183.5 766.5,183.5C 766.5,180.833 766.5,178.167 766.5,175.5C 773.5,175.5 780.5,175.5 787.5,175.5C 787.5,178.167 787.5,180.833 787.5,183.5C 786.5,183.5 785.5,183.5 784.5,183.5C 784.5,182.167 784.5,180.833 784.5,179.5C 782.833,179.5 781.167,179.5 779.5,179.5C 779.5,186.5 779.5,193.5 779.5,200.5C 780.5,200.5 781.5,200.5 782.5,200.5C 782.5,201.5 782.5,202.5 782.5,203.5 Z"/></g>
<g><path style="opacity:0.673" fill="#010101" d="M 805.5,203.5 C 802.167,203.5 798.833,203.5 795.5,203.5C 793.535,201.232 792.368,198.565 792,195.5C 791.818,188.709 790.984,182.042 789.5,175.5C 792.5,175.5 795.5,175.5 798.5,175.5C 796.664,182.368 796.164,189.368 797,196.5C 800,201.833 803,201.833 806,196.5C 806.83,190.804 806.663,185.137 805.5,179.5C 804.5,179.167 803.833,178.5 803.5,177.5C 804.527,175.976 806.027,175.309 808,175.5C 812.299,175.251 813.132,176.584 810.5,179.5C 809.669,185.807 809.169,192.141 809,198.5C 808.743,200.907 807.576,202.573 805.5,203.5 Z"/></g>
<g><path style="opacity:0.712" fill="#010101" d="M 835.5,203.5 C 833.833,203.5 832.167,203.5 830.5,203.5C 828.847,200.193 827.18,196.86 825.5,193.5C 824.15,192.05 822.484,191.383 820.5,191.5C 820.32,195.682 820.987,199.682 822.5,203.5C 819.5,203.5 816.5,203.5 813.5,203.5C 816.108,194.191 816.108,184.857 813.5,175.5C 818.913,175.229 824.246,175.729 829.5,177C 832.394,179.909 833.227,183.409 832,187.5C 831.097,188.701 829.931,189.535 828.5,190C 831.518,194.203 833.851,198.703 835.5,203.5 Z M 820.5,179.5 C 827.158,178.344 829.158,180.844 826.5,187C 824.655,188.128 822.655,188.628 820.5,188.5C 820.5,185.5 820.5,182.5 820.5,179.5 Z"/></g>
<g><path style="opacity:0.753" fill="#020202" d="M 857.5,203.5 C 850.833,203.5 844.167,203.5 837.5,203.5C 837.5,202.5 837.5,201.5 837.5,200.5C 838.5,200.5 839.5,200.5 840.5,200.5C 840.83,193.468 840.497,186.468 839.5,179.5C 837.899,178.965 837.399,177.965 838,176.5C 844.076,175.524 850.242,175.19 856.5,175.5C 856.663,177.857 856.497,180.19 856,182.5C 855.333,183.833 854.667,183.833 854,182.5C 853.517,181.552 853.351,180.552 853.5,179.5C 850.5,179.5 847.5,179.5 844.5,179.5C 844.5,182.167 844.5,184.833 844.5,187.5C 846.5,187.5 848.5,187.5 850.5,187.5C 850.5,186.167 850.5,184.833 850.5,183.5C 851.5,183.5 852.5,183.5 853.5,183.5C 853.5,186.833 853.5,190.167 853.5,193.5C 852.5,193.5 851.5,193.5 850.5,193.5C 850.5,192.5 850.5,191.5 850.5,190.5C 848.5,190.5 846.5,190.5 844.5,190.5C 844.5,193.833 844.5,197.167 844.5,200.5C 847.833,200.5 851.167,200.5 854.5,200.5C 854.5,199.167 854.5,197.833 854.5,196.5C 855.5,196.5 856.5,196.5 857.5,196.5C 857.5,198.833 857.5,201.167 857.5,203.5 Z"/></g>
</svg>
